<mxfile host="app.diagrams.net" modified="2020-06-16T10:01:19.834Z" agent="5.0 (Windows NT 10.0; Win64; x64) AppleWebKit/537.36 (KHTML, like Gecko) Chrome/83.0.4103.97 Safari/537.36" etag="0zhYh6jgZFI6krciYVGW" version="13.2.4" type="github">
  <diagram id="DH6KpHg-hLR6nLTeE1Bj" name="Page-1">
    <mxGraphModel dx="1422" dy="762" grid="1" gridSize="10" guides="1" tooltips="1" connect="1" arrows="1" fold="1" page="1" pageScale="1" pageWidth="827" pageHeight="1169" math="0" shadow="0">
      <root>
        <mxCell id="0" />
        <mxCell id="1" parent="0" />
        <mxCell id="B1tgo3dyAm0PTzsQHLAI-14" value="&lt;h1&gt;&lt;span style=&quot;background-color: rgb(213 , 232 , 212)&quot;&gt;&lt;font style=&quot;font-size: 17px&quot;&gt;券商背景&lt;/font&gt;&lt;/span&gt;&lt;/h1&gt;" style="shape=table;html=1;whiteSpace=wrap;startSize=30;container=1;collapsible=0;childLayout=tableLayout;fontStyle=1;align=center;fillColor=#D5E8D4;strokeColor=#82b366;strokeWidth=3;" parent="1" vertex="1">
          <mxGeometry x="170" y="300" width="490" height="360" as="geometry" />
        </mxCell>
        <mxCell id="B1tgo3dyAm0PTzsQHLAI-15" value="" style="shape=partialRectangle;html=1;whiteSpace=wrap;collapsible=0;dropTarget=0;pointerEvents=0;fillColor=none;top=0;left=0;bottom=0;right=0;points=[[0,0.5],[1,0.5]];portConstraint=eastwest;" parent="B1tgo3dyAm0PTzsQHLAI-14" vertex="1">
          <mxGeometry y="30" width="490" height="67" as="geometry" />
        </mxCell>
        <mxCell id="B1tgo3dyAm0PTzsQHLAI-27" value="&lt;pre&gt;&lt;font style=&quot;font-size: 18px&quot;&gt;&lt;b&gt;证券公司&lt;/b&gt;&lt;/font&gt;&lt;/pre&gt;" style="shape=partialRectangle;html=1;whiteSpace=wrap;connectable=0;fillColor=none;top=0;left=0;bottom=0;right=0;overflow=hidden;" parent="B1tgo3dyAm0PTzsQHLAI-15" vertex="1">
          <mxGeometry width="118" height="67" as="geometry" />
        </mxCell>
        <mxCell id="B1tgo3dyAm0PTzsQHLAI-16" value="&lt;pre&gt;&lt;font style=&quot;font-size: 18px&quot;&gt;&lt;b&gt;成立时间&lt;/b&gt;&lt;/font&gt;&lt;/pre&gt;" style="shape=partialRectangle;html=1;whiteSpace=wrap;connectable=0;fillColor=none;top=0;left=0;bottom=0;right=0;overflow=hidden;" parent="B1tgo3dyAm0PTzsQHLAI-15" vertex="1">
          <mxGeometry x="118" width="127" height="67" as="geometry" />
        </mxCell>
        <mxCell id="B1tgo3dyAm0PTzsQHLAI-17" value="&lt;pre&gt;&lt;font style=&quot;font-size: 17px&quot;&gt;&lt;b&gt;对接国外券商&lt;/b&gt;&lt;/font&gt;&lt;/pre&gt;" style="shape=partialRectangle;html=1;whiteSpace=wrap;connectable=0;fillColor=none;top=0;left=0;bottom=0;right=0;overflow=hidden;" parent="B1tgo3dyAm0PTzsQHLAI-15" vertex="1">
          <mxGeometry x="245" width="123" height="67" as="geometry" />
        </mxCell>
        <mxCell id="B1tgo3dyAm0PTzsQHLAI-18" value="&lt;pre&gt;&lt;font style=&quot;font-size: 18px&quot;&gt;&lt;b&gt;资本投资&lt;/b&gt;&lt;/font&gt;&lt;/pre&gt;" style="shape=partialRectangle;html=1;whiteSpace=wrap;connectable=0;fillColor=none;top=0;left=0;bottom=0;right=0;overflow=hidden;" parent="B1tgo3dyAm0PTzsQHLAI-15" vertex="1">
          <mxGeometry x="368" width="122" height="67" as="geometry" />
        </mxCell>
        <mxCell id="B1tgo3dyAm0PTzsQHLAI-19" value="" style="shape=partialRectangle;html=1;whiteSpace=wrap;collapsible=0;dropTarget=0;pointerEvents=0;fillColor=none;top=0;left=0;bottom=0;right=0;points=[[0,0.5],[1,0.5]];portConstraint=eastwest;" parent="B1tgo3dyAm0PTzsQHLAI-14" vertex="1">
          <mxGeometry y="97" width="490" height="87" as="geometry" />
        </mxCell>
        <mxCell id="B1tgo3dyAm0PTzsQHLAI-28" value="&lt;h2&gt;&lt;font face=&quot;Comic Sans MS&quot;&gt;雪盈证券&lt;/font&gt;&lt;/h2&gt;" style="shape=partialRectangle;html=1;whiteSpace=wrap;connectable=0;fillColor=none;top=0;left=0;bottom=0;right=0;overflow=hidden;" parent="B1tgo3dyAm0PTzsQHLAI-19" vertex="1">
          <mxGeometry width="118" height="87" as="geometry" />
        </mxCell>
        <mxCell id="B1tgo3dyAm0PTzsQHLAI-20" value="" style="shape=partialRectangle;html=1;whiteSpace=wrap;connectable=0;fillColor=none;top=0;left=0;bottom=0;right=0;overflow=hidden;" parent="B1tgo3dyAm0PTzsQHLAI-19" vertex="1">
          <mxGeometry x="118" width="127" height="87" as="geometry" />
        </mxCell>
        <mxCell id="B1tgo3dyAm0PTzsQHLAI-21" value="" style="shape=partialRectangle;html=1;whiteSpace=wrap;connectable=0;fillColor=none;top=0;left=0;bottom=0;right=0;overflow=hidden;" parent="B1tgo3dyAm0PTzsQHLAI-19" vertex="1">
          <mxGeometry x="245" width="123" height="87" as="geometry" />
        </mxCell>
        <mxCell id="B1tgo3dyAm0PTzsQHLAI-22" value="" style="shape=partialRectangle;html=1;whiteSpace=wrap;connectable=0;fillColor=none;top=0;left=0;bottom=0;right=0;overflow=hidden;" parent="B1tgo3dyAm0PTzsQHLAI-19" vertex="1">
          <mxGeometry x="368" width="122" height="87" as="geometry" />
        </mxCell>
        <mxCell id="B1tgo3dyAm0PTzsQHLAI-23" value="" style="shape=partialRectangle;html=1;whiteSpace=wrap;collapsible=0;dropTarget=0;pointerEvents=0;fillColor=none;top=0;left=0;bottom=0;right=0;points=[[0,0.5],[1,0.5]];portConstraint=eastwest;" parent="B1tgo3dyAm0PTzsQHLAI-14" vertex="1">
          <mxGeometry y="184" width="490" height="88" as="geometry" />
        </mxCell>
        <mxCell id="B1tgo3dyAm0PTzsQHLAI-29" value="&lt;h2&gt;富途证券&lt;/h2&gt;" style="shape=partialRectangle;html=1;whiteSpace=wrap;connectable=0;fillColor=none;top=0;left=0;bottom=0;right=0;overflow=hidden;" parent="B1tgo3dyAm0PTzsQHLAI-23" vertex="1">
          <mxGeometry width="118" height="88" as="geometry" />
        </mxCell>
        <mxCell id="B1tgo3dyAm0PTzsQHLAI-24" value="" style="shape=partialRectangle;html=1;whiteSpace=wrap;connectable=0;fillColor=none;top=0;left=0;bottom=0;right=0;overflow=hidden;" parent="B1tgo3dyAm0PTzsQHLAI-23" vertex="1">
          <mxGeometry x="118" width="127" height="88" as="geometry" />
        </mxCell>
        <mxCell id="B1tgo3dyAm0PTzsQHLAI-25" value="" style="shape=partialRectangle;html=1;whiteSpace=wrap;connectable=0;fillColor=none;top=0;left=0;bottom=0;right=0;overflow=hidden;" parent="B1tgo3dyAm0PTzsQHLAI-23" vertex="1">
          <mxGeometry x="245" width="123" height="88" as="geometry" />
        </mxCell>
        <mxCell id="B1tgo3dyAm0PTzsQHLAI-26" value="" style="shape=partialRectangle;html=1;whiteSpace=wrap;connectable=0;fillColor=none;top=0;left=0;bottom=0;right=0;overflow=hidden;" parent="B1tgo3dyAm0PTzsQHLAI-23" vertex="1">
          <mxGeometry x="368" width="122" height="88" as="geometry" />
        </mxCell>
        <mxCell id="B1tgo3dyAm0PTzsQHLAI-36" style="shape=partialRectangle;html=1;whiteSpace=wrap;collapsible=0;dropTarget=0;pointerEvents=0;fillColor=none;top=0;left=0;bottom=0;right=0;points=[[0,0.5],[1,0.5]];portConstraint=eastwest;" parent="B1tgo3dyAm0PTzsQHLAI-14" vertex="1">
          <mxGeometry y="272" width="490" height="88" as="geometry" />
        </mxCell>
        <mxCell id="B1tgo3dyAm0PTzsQHLAI-37" value="&lt;h2&gt;老虎证券&lt;/h2&gt;" style="shape=partialRectangle;html=1;whiteSpace=wrap;connectable=0;fillColor=none;top=0;left=0;bottom=0;right=0;overflow=hidden;" parent="B1tgo3dyAm0PTzsQHLAI-36" vertex="1">
          <mxGeometry width="118" height="88" as="geometry" />
        </mxCell>
        <mxCell id="B1tgo3dyAm0PTzsQHLAI-38" style="shape=partialRectangle;html=1;whiteSpace=wrap;connectable=0;fillColor=none;top=0;left=0;bottom=0;right=0;overflow=hidden;" parent="B1tgo3dyAm0PTzsQHLAI-36" vertex="1">
          <mxGeometry x="118" width="127" height="88" as="geometry" />
        </mxCell>
        <mxCell id="B1tgo3dyAm0PTzsQHLAI-39" style="shape=partialRectangle;html=1;whiteSpace=wrap;connectable=0;fillColor=none;top=0;left=0;bottom=0;right=0;overflow=hidden;" parent="B1tgo3dyAm0PTzsQHLAI-36" vertex="1">
          <mxGeometry x="245" width="123" height="88" as="geometry" />
        </mxCell>
        <mxCell id="B1tgo3dyAm0PTzsQHLAI-40" style="shape=partialRectangle;html=1;whiteSpace=wrap;connectable=0;fillColor=none;top=0;left=0;bottom=0;right=0;overflow=hidden;" parent="B1tgo3dyAm0PTzsQHLAI-36" vertex="1">
          <mxGeometry x="368" width="122" height="88" as="geometry" />
        </mxCell>
      </root>
    </mxGraphModel>
  </diagram>
</mxfile>
